# xmcd CD database file
#
# Track frame offsets:
#	182
#	11540
#	22062
#	33082
#	46675
#	61830
#	73852
#	85337
#	98015
#	114537
#	126507
#	142100
#	152680
#	161905
#	173460
#	183980
#	201355
#	213195
#
# Disc length: 3178 seconds
#
# Revision: 4
# Processed by: cddbd v1.5.2PL0 Copyright (c) Steve Scherf et al.
# Submitted via: CDex 1.51
#
DISCID=f40c6812
DTITLE=The Yardbirds - Greatest Hits, Volume One (1964-1966)
DYEAR=1986
DGENRE=Blues
TTITLE0=For Your Love
TTITLE1=Putty (In Your Hands)
TTITLE2=Evil Hearted You
TTITLE3=Still I'm Sad
TTITLE4=You're A Better Man Than I
TTITLE5=Shapes Of Things
TTITLE6=Heart Full Of Soul
TTITLE7=Good Morning Little Schoolgirl
TTITLE8=I Ain't Done Wrong
TTITLE9=I'm A Man
TTITLE10=The Train Kept A Rollin'
TTITLE11=A Certain Girl
TTITLE12=I Ain't Got You
TTITLE13=I'm Not Talking
TTITLE14=I Wish You Would
TTITLE15=Too Much Monkey Business
TTITLE16=Got Love If You Want It
TTITLE17=Smokestack Lightning
EXTD=YEAR: 1986
EXTT0=
EXTT1=
EXTT2=
EXTT3=
EXTT4=
EXTT5=
EXTT6=
EXTT7=
EXTT8=
EXTT9=
EXTT10=
EXTT11=
EXTT12=
EXTT13=
EXTT14=
EXTT15=
EXTT16=
EXTT17=
PLAYORDER=
